<?xml version="1.0" encoding="UTF-8"?>
<svg xmlns="http://www.w3.org/2000/svg" xmlns:xlink="http://www.w3.org/1999/xlink" width="278pt" height="198pt" viewBox="0 0 278 198" version="1.1">
<g id="surface1">
<path style="fill:none;stroke-width:1.2;stroke-linecap:butt;stroke-linejoin:round;stroke:rgb(20%,20%,20%);stroke-opacity:1;stroke-miterlimit:10;" d="M 128 704 L 400 704 " transform="matrix(1,0,0,-1,-125.5,706.5)"/>
<path style="fill:none;stroke-width:1.2;stroke-linecap:butt;stroke-linejoin:round;stroke:rgb(20%,20%,20%);stroke-opacity:1;stroke-miterlimit:10;" d="M 128 640 L 400 640 " transform="matrix(1,0,0,-1,-125.5,706.5)"/>
<path style="fill:none;stroke-width:1.2;stroke-linecap:butt;stroke-linejoin:round;stroke:rgb(20%,20%,20%);stroke-opacity:1;stroke-miterlimit:10;" d="M 128 576 L 400 576 " transform="matrix(1,0,0,-1,-125.5,706.5)"/>
<path style="fill:none;stroke-width:1.2;stroke-linecap:butt;stroke-linejoin:round;stroke:rgb(20%,20%,20%);stroke-opacity:1;stroke-miterlimit:10;" d="M 128 512 L 400 512 " transform="matrix(1,0,0,-1,-125.5,706.5)"/>
<path style="fill:none;stroke-width:1.2;stroke-linecap:butt;stroke-linejoin:round;stroke:rgb(50%,50%,100%);stroke-opacity:1;stroke-miterlimit:10;" d="M 192 704 L 192 640 " transform="matrix(1,0,0,-1,-125.5,706.5)"/>
<path style="fill:none;stroke-width:1.2;stroke-linecap:butt;stroke-linejoin:round;stroke:rgb(50%,50%,100%);stroke-opacity:1;stroke-miterlimit:10;" d="M 208 576 L 208 512 " transform="matrix(1,0,0,-1,-125.5,706.5)"/>
<path style="fill:none;stroke-width:1.2;stroke-linecap:butt;stroke-linejoin:round;stroke:rgb(100%,50%,50%);stroke-opacity:1;stroke-miterlimit:10;" d="M 256 704 L 256 576 " transform="matrix(1,0,0,-1,-125.5,706.5)"/>
<path style="fill:none;stroke-width:1.2;stroke-linecap:butt;stroke-linejoin:round;stroke:rgb(100%,50%,50%);stroke-opacity:1;stroke-miterlimit:10;" d="M 272 640 L 272 512 " transform="matrix(1,0,0,-1,-125.5,706.5)"/>
<path style="fill:none;stroke-width:1.2;stroke-linecap:butt;stroke-linejoin:round;stroke:rgb(50%,100%,50%);stroke-opacity:1;stroke-miterlimit:10;" d="M 336 640 L 336 576 " transform="matrix(1,0,0,-1,-125.5,706.5)"/>
<path style=" stroke:none;fill-rule:evenodd;fill:rgb(100%,50%,50%);fill-opacity:1;" d="M 148.300781 66.5 C 148.300781 64.101562 144.699219 64.101562 144.699219 66.5 C 144.699219 68.898438 148.300781 68.898438 148.300781 66.5 Z M 148.300781 66.5 "/>
<path style=" stroke:none;fill-rule:evenodd;fill:rgb(100%,50%,50%);fill-opacity:1;" d="M 148.300781 194.5 C 148.300781 192.101562 144.699219 192.101562 144.699219 194.5 C 144.699219 196.898438 148.300781 196.898438 148.300781 194.5 Z M 148.300781 194.5 "/>
<path style=" stroke:none;fill-rule:evenodd;fill:rgb(50%,50%,100%);fill-opacity:1;" d="M 84.300781 194.5 C 84.300781 192.101562 80.699219 192.101562 80.699219 194.5 C 80.699219 196.898438 84.300781 196.898438 84.300781 194.5 Z M 84.300781 194.5 "/>
<path style=" stroke:none;fill-rule:evenodd;fill:rgb(50%,50%,100%);fill-opacity:1;" d="M 84.300781 130.5 C 84.300781 128.101562 80.699219 128.101562 80.699219 130.5 C 80.699219 132.898438 84.300781 132.898438 84.300781 130.5 Z M 84.300781 130.5 "/>
<path style=" stroke:none;fill-rule:evenodd;fill:rgb(100%,50%,50%);fill-opacity:1;" d="M 132.300781 130.5 C 132.300781 128.101562 128.699219 128.101562 128.699219 130.5 C 128.699219 132.898438 132.300781 132.898438 132.300781 130.5 Z M 132.300781 130.5 "/>
<path style=" stroke:none;fill-rule:evenodd;fill:rgb(100%,50%,50%);fill-opacity:1;" d="M 132.300781 2.5 C 132.300781 0.101562 128.699219 0.101562 128.699219 2.5 C 128.699219 4.898438 132.300781 4.898438 132.300781 2.5 Z M 132.300781 2.5 "/>
<path style=" stroke:none;fill-rule:evenodd;fill:rgb(50%,50%,100%);fill-opacity:1;" d="M 68.300781 2.5 C 68.300781 0.101562 64.699219 0.101562 64.699219 2.5 C 64.699219 4.898438 68.300781 4.898438 68.300781 2.5 Z M 68.300781 2.5 "/>
<path style=" stroke:none;fill-rule:evenodd;fill:rgb(50%,50%,100%);fill-opacity:1;" d="M 68.300781 66.5 C 68.300781 64.101562 64.699219 64.101562 64.699219 66.5 C 64.699219 68.898438 68.300781 68.898438 68.300781 66.5 Z M 68.300781 66.5 "/>
<path style=" stroke:none;fill-rule:evenodd;fill:rgb(50.2%,100%,50.2%);fill-opacity:1;" d="M 212.300781 66.5 C 212.300781 64.101562 208.699219 64.101562 208.699219 66.5 C 208.699219 68.898438 212.300781 68.898438 212.300781 66.5 Z M 212.300781 66.5 "/>
<path style=" stroke:none;fill-rule:evenodd;fill:rgb(50.2%,100%,50.2%);fill-opacity:1;" d="M 212.300781 130.5 C 212.300781 128.101562 208.699219 128.101562 208.699219 130.5 C 208.699219 132.898438 212.300781 132.898438 212.300781 130.5 Z M 212.300781 130.5 "/>
<path style=" stroke:none;fill-rule:evenodd;fill:rgb(20%,20%,20%);fill-opacity:1;" d="M 4.300781 2.5 C 4.300781 0.101562 0.699219 0.101562 0.699219 2.5 C 0.699219 4.898438 4.300781 4.898438 4.300781 2.5 Z M 4.300781 2.5 "/>
<path style=" stroke:none;fill-rule:evenodd;fill:rgb(20%,20%,20%);fill-opacity:1;" d="M 4.300781 66.5 C 4.300781 64.101562 0.699219 64.101562 0.699219 66.5 C 0.699219 68.898438 4.300781 68.898438 4.300781 66.5 Z M 4.300781 66.5 "/>
<path style=" stroke:none;fill-rule:evenodd;fill:rgb(20%,20%,20%);fill-opacity:1;" d="M 4.300781 130.5 C 4.300781 128.101562 0.699219 128.101562 0.699219 130.5 C 0.699219 132.898438 4.300781 132.898438 4.300781 130.5 Z M 4.300781 130.5 "/>
<path style=" stroke:none;fill-rule:evenodd;fill:rgb(20%,20%,20%);fill-opacity:1;" d="M 4.300781 194.5 C 4.300781 192.101562 0.699219 192.101562 0.699219 194.5 C 0.699219 196.898438 4.300781 196.898438 4.300781 194.5 Z M 4.300781 194.5 "/>
<path style=" stroke:none;fill-rule:evenodd;fill:rgb(20%,20%,20%);fill-opacity:1;" d="M 276.300781 194.5 C 276.300781 192.101562 272.699219 192.101562 272.699219 194.5 C 272.699219 196.898438 276.300781 196.898438 276.300781 194.5 Z M 276.300781 194.5 "/>
<path style=" stroke:none;fill-rule:evenodd;fill:rgb(20%,20%,20%);fill-opacity:1;" d="M 276.300781 130.5 C 276.300781 128.101562 272.699219 128.101562 272.699219 130.5 C 272.699219 132.898438 276.300781 132.898438 276.300781 130.5 Z M 276.300781 130.5 "/>
<path style=" stroke:none;fill-rule:evenodd;fill:rgb(20%,20%,20%);fill-opacity:1;" d="M 276.300781 66.5 C 276.300781 64.101562 272.699219 64.101562 272.699219 66.5 C 272.699219 68.898438 276.300781 68.898438 276.300781 66.5 Z M 276.300781 66.5 "/>
<path style=" stroke:none;fill-rule:evenodd;fill:rgb(20%,20%,20%);fill-opacity:1;" d="M 276.300781 2.5 C 276.300781 0.101562 272.699219 0.101562 272.699219 2.5 C 272.699219 4.898438 276.300781 4.898438 276.300781 2.5 Z M 276.300781 2.5 "/>
</g>
</svg>
